<?xml version="1.0" standalone="no"?>
<!DOCTYPE svg PUBLIC "-//W3C//DTD SVG 20010904//EN"
 "http://www.w3.org/TR/2001/REC-SVG-20010904/DTD/svg10.dtd">
<svg version="1.0" xmlns="http://www.w3.org/2000/svg"
 width="739.000000pt" height="739.000000pt" viewBox="0 0 739.000000 739.000000"
 preserveAspectRatio="xMidYMid meet">
<metadata>
Created by potrace 1.14, written by Peter Selinger 2001-2017
</metadata>
<g transform="translate(0.000000,739.000000) scale(0.100000,-0.100000)"
fill="#000000" stroke="none">
<path d="M2973 7378 c-5 -7 -17 -49 -27 -93 -28 -129 -65 -289 -103 -445 -29
-116 -84 -368 -107 -485 -2 -11 -7 -31 -10 -45 -6 -27 -22 -100 -30 -138 -3
-13 -8 -32 -11 -42 -3 -10 -8 -27 -10 -37 -2 -10 -15 -66 -29 -124 -13 -59
-27 -120 -29 -135 -3 -16 -14 -68 -26 -116 -19 -81 -23 -98 -36 -173 -3 -16
-19 -84 -36 -150 -17 -66 -39 -163 -50 -215 -18 -89 -42 -195 -74 -335 -17
-71 -24 -102 -109 -475 -36 -157 -75 -332 -87 -390 -11 -58 -22 -109 -23 -115
-2 -5 -6 -28 -10 -50 -5 -22 -17 -76 -28 -120 -11 -44 -22 -91 -24 -105 -3
-14 -7 -33 -10 -42 -3 -10 -8 -30 -10 -45 -3 -16 -10 -48 -15 -72 -6 -25 -6
-48 -1 -55 5 -6 47 -58 93 -115 227 -280 279 -346 279 -353 0 -4 -24 -8 -52
-9 -29 0 -105 -2 -168 -4 -63 -2 -161 -4 -217 -4 l-101 -1 -10 -32 c-6 -18
-25 -96 -42 -173 -18 -77 -37 -158 -43 -180 -6 -22 -11 -44 -13 -50 -1 -5 -12
-50 -24 -100 -12 -49 -23 -98 -25 -108 -2 -10 -6 -26 -9 -35 -3 -9 -7 -28 -10
-42 -3 -14 -30 -124 -60 -245 -30 -121 -57 -231 -60 -245 -3 -14 -9 -40 -15
-58 -5 -18 -10 -35 -10 -37 1 -3 -7 -38 -17 -78 -15 -67 -15 -75 -1 -93 9 -10
69 -84 133 -164 64 -80 131 -163 149 -185 18 -22 95 -116 172 -210 316 -387
422 -514 503 -600 47 -50 117 -125 155 -168 l70 -77 955 -1 c525 -1 969 -1
986 0 32 1 32 0 63 86 27 72 61 179 95 300 2 6 6 17 9 25 3 8 15 44 27 80 11
36 24 72 27 80 3 8 7 20 7 25 2 12 24 83 36 110 15 35 22 59 27 90 2 17 9 34
14 39 5 6 9 19 9 31 0 12 4 25 9 31 5 5 21 50 37 99 58 188 58 191 34 229 -11
18 -53 74 -93 124 -40 50 -91 117 -112 149 -22 32 -57 82 -78 111 -21 30 -37
56 -34 58 3 3 129 5 281 4 302 0 327 3 362 56 22 33 23 50 6 81 -28 51 -35 53
-186 53 -78 0 -145 3 -149 6 -3 3 8 43 24 87 17 45 31 87 32 92 8 34 16 35
311 35 161 0 296 3 300 7 4 5 11 8 15 8 12 0 66 58 74 78 9 23 -20 75 -45 83
-10 3 -141 5 -293 5 -177 0 -275 4 -275 10 0 6 5 20 11 31 6 11 13 34 16 50 2
17 13 50 23 74 l19 44 380 0 c388 0 408 2 453 39 9 8 15 18 12 23 -3 4 0 8 5
8 6 0 11 17 11 38 0 44 -29 82 -63 83 -12 0 -181 1 -374 2 -228 1 -353 6 -353
12 0 17 68 207 77 216 5 5 201 9 436 9 l427 1 35 30 c39 35 49 58 40 97 -12
56 -13 57 -457 57 -223 0 -409 2 -412 6 -5 4 60 208 69 218 2 2 206 4 452 5
488 1 469 -1 511 60 30 44 21 77 -28 109 -22 14 -79 16 -440 18 -228 1 -418 3
-422 6 -4 2 4 33 17 68 13 36 23 67 23 68 -1 1 4 19 11 40 l13 37 111 1 c62 0
256 2 432 3 420 2 395 -11 395 204 0 117 -1 124 -25 147 -15 16 -36 25 -57 26
-18 0 -181 2 -363 4 -394 4 -360 2 -347 18 6 6 11 15 11 20 3 26 7 41 14 57
10 23 37 100 49 140 6 19 15 38 20 41 6 4 150 7 322 8 363 1 359 0 364 88 3
42 -1 53 -24 76 l-27 27 -282 0 c-155 0 -284 2 -287 5 -2 3 13 57 35 120 l39
115 198 0 198 0 26 31 c26 31 36 89 15 89 -5 0 -8 3 -5 8 6 10 -14 34 -46 55
-23 14 -51 17 -168 17 -80 0 -140 4 -140 9 0 5 5 22 11 38 6 15 12 35 14 43 3
8 13 42 23 75 19 59 20 60 62 66 42 6 90 46 90 76 0 22 -28 71 -50 86 -20 14
-20 14 0 55 11 23 20 48 20 57 0 9 4 24 9 33 10 19 14 15 -169 252 -62 80
-151 197 -197 260 -47 63 -98 131 -113 150 -85 111 -346 457 -410 543 -94 128
-347 460 -417 550 l-54 67 -1008 0 c-795 0 -1011 -3 -1018 -12z"/>
<path d="M2178 6793 c-16 -2 -28 -9 -28 -14 0 -5 -7 -9 -15 -9 -8 0 -26 -18
-41 -39 -29 -44 -26 -70 9 -108 20 -22 26 -23 229 -23 171 0 208 2 208 14 0 8
6 16 13 19 7 3 19 30 26 60 11 49 10 59 -5 81 l-16 26 -177 -1 c-97 -1 -188
-4 -203 -6z"/>
<path d="M1700 6362 c-82 -37 -105 -113 -47 -163 l32 -29 371 0 c371 0 371 0
396 23 35 31 47 124 19 156 -18 21 -22 21 -387 20 -203 0 -376 -3 -384 -7z"/>
<path d="M1468 5922 c-44 -2 -78 -7 -78 -13 0 -6 -4 -7 -10 -4 -5 3 -25 -9
-45 -26 -45 -41 -48 -83 -7 -122 l28 -27 487 0 487 0 22 22 c12 12 23 29 25
38 16 96 16 96 -13 115 -25 16 -60 18 -423 19 -218 1 -431 0 -473 -2z"/>
<path d="M1108 5453 c-50 -20 -80 -71 -68 -114 18 -61 -8 -58 618 -59 l573 0
24 23 c19 17 26 35 29 77 7 97 48 90 -588 89 -469 0 -557 -3 -588 -16z"/>
<path d="M905 4987 c-61 -59 -61 -112 1 -145 14 -7 205 -11 620 -12 l599 0 28
25 c15 14 28 31 29 38 2 21 4 31 12 65 6 26 4 38 -10 53 -17 18 -37 19 -625
19 l-609 0 -45 -43z"/>
<path d="M1013 4590 l-221 -5 -26 -30 c-37 -42 -36 -99 2 -131 l27 -24 620 0
620 0 22 24 c15 15 25 42 29 77 11 93 33 88 -441 91 -226 2 -510 1 -632 -2z"/>
<path d="M848 4110 c-76 -6 -107 -30 -109 -84 -8 -206 -6 -225 23 -256 15 -17
33 -30 40 -31 20 -1 912 -1 1008 0 84 1 85 1 107 34 11 17 23 50 26 72 2 22 9
60 15 85 29 125 34 162 23 173 -11 11 -995 17 -1133 7z"/>
<path d="M932 3508 c-43 -12 -85 -54 -85 -87 0 -39 31 -79 73 -92 23 -7 174
-9 451 -7 l416 3 30 31 c23 22 32 43 37 80 7 46 5 51 -16 62 -26 13 -857 22
-906 10z"/>
<path d="M1088 3091 c-7 -2 -25 -15 -40 -29 -39 -36 -38 -79 3 -118 l30 -29
212 -5 c262 -6 397 -3 397 11 0 5 8 19 18 29 12 13 19 38 21 69 3 76 5 75
-336 76 -161 0 -298 -2 -305 -4z"/>
<path d="M1322 2669 c-39 -15 -84 -109 -52 -109 6 0 10 -5 10 -10 0 -6 11 -22
25 -35 23 -24 30 -25 138 -25 111 0 114 1 139 28 33 34 46 108 25 137 -13 17
-28 19 -141 20 -69 0 -134 -3 -144 -6z"/>
</g>
</svg>
